<svg xmlns="http://www.w3.org/2000/svg" width="1200" height="700" viewBox="0 0 1200 700"><defs><linearGradient id="bg" x1="0" x2="1" y1="0" y2="1"><stop offset="0%" stop-color="#ffedd5"/><stop offset="100%" stop-color="#fff7ed"/></linearGradient></defs><rect width="1200" height="700" fill="url(#bg)"/><rect width="700" height="520" x="250" y="90" fill="#fffef9" stroke="#fed7aa" rx="18"/><text x="290" y="155" fill="#ea580c" font-family="PingFang SC, Microsoft YaHei, sans-serif" font-size="34">Private Multiplier Demo</text><text x="290" y="195" fill="#64748b" font-family="PingFang SC, Microsoft YaHei, sans-serif" font-size="18">Task3 前端演示截图（私密乘法应用）</text><text x="290" y="255" fill="#334155" font-family="PingFang SC, Microsoft YaHei, sans-serif" font-size="16">私有输入 a</text><rect width="280" height="46" x="290" y="268" fill="#fff" stroke="#cbd5e1" rx="8"/><text x="308" y="297" fill="#0f172a" font-family="Menlo, Consolas, monospace" font-size="20">12</text><text x="620" y="255" fill="#334155" font-family="PingFang SC, Microsoft YaHei, sans-serif" font-size="16">私有输入 b</text><rect width="280" height="46" x="620" y="268" fill="#fff" stroke="#cbd5e1" rx="8"/><text x="638" y="297" fill="#0f172a" font-family="Menlo, Consolas, monospace" font-size="20">8</text><rect width="170" height="44" x="290" y="340" fill="#ea580c" rx="10"/><text x="322" y="368" fill="#fff" font-family="PingFang SC, Microsoft YaHei, sans-serif" font-size="16">执行私密乘法</text><rect width="120" height="44" x="478" y="340" fill="#e2e8f0" rx="10"/><text x="510" y="368" fill="#0f172a" font-family="PingFang SC, Microsoft YaHei, sans-serif" font-size="16">验证结果</text><rect width="120" height="44" x="615" y="340" fill="#e2e8f0" rx="10"/><text x="657" y="368" fill="#0f172a" font-family="PingFang SC, Microsoft YaHei, sans-serif" font-size="16">重置</text><rect width="610" height="150" x="290" y="412" fill="#fff7ed" stroke="#94a3b8" stroke-dasharray="6 4" rx="10"/><text x="312" y="452" fill="#16a34a" font-family="PingFang SC, Microsoft YaHei, sans-serif" font-size="18">执行成功</text><text x="312" y="486" fill="#0f172a" font-family="Menlo, Consolas, monospace" font-size="18">private_multiply(12, 8) = 96</text><text x="312" y="520" fill="#334155" font-family="Menlo, Consolas, monospace" font-size="18">Demo TxID: demo_1748338471</text></svg>